<?xml version="1.0" encoding="UTF-8"?>
<svg width="30px" height="29px" viewBox="0 0 30 29" version="1.1" xmlns="http://www.w3.org/2000/svg" xmlns:xlink="http://www.w3.org/1999/xlink">
    <!-- Generator: Sketch 53.2 (72643) - https://sketchapp.com -->
    <title>Combined Shape</title>
    <desc>Created with Sketch.</desc>
    <g id="Category" stroke="none" stroke-width="1" fill="none" fill-rule="evenodd">
        <g id="Full-Category" transform="translate(-1213.000000, -2962.000000)" fill="#FFFFFF" fill-rule="nonzero">
            <g id="Group-5" transform="translate(1140.000000, 2962.000000)">
                <path d="M96.6732256,-1.54543045e-13 C100.167469,-1.54543045e-13 103.000064,2.83259468 103,6.32658241 C103,9.03338637 101.300034,11.3427915 98.9095621,12.2462964 L98.9095621,21.5054791 C98.9095621,21.9738352 98.5300145,22.3533828 98.0616584,22.3533828 L94.4162227,22.3533828 L88.2628425,28.4642782 C88.1006454,28.6264753 87.8836148,28.7127245 87.6631291,28.7127245 C87.55391,28.7127245 87.4437312,28.6915461 87.3388629,28.6481656 C87.0218907,28.5168723 86.8154813,28.2076421 86.8154813,27.8647568 L86.8154813,22.3533828 L73.8477757,22.3533828 C73.3795476,22.3533828 73,21.9738352 73,21.5054791 L73,5.99086322 C73,5.52276305 73.3795476,5.14295952 73.8477757,5.1430235 L90.4575899,5.1430235 C91.0120032,2.21464615 93.5838029,-1.54543045e-13 96.6732256,-1.54543045e-13 Z M96.6732256,11.0538439 C99.2797681,11.0538439 101.400487,8.93331684 101.400487,6.32664639 C101.400487,3.72010391 99.2797681,1.59951288 96.6732256,1.59951288 C94.0668111,1.59951288 91.9462201,3.72010391 91.9462201,6.32664639 C91.9462201,8.93325286 94.0668111,11.0538439 96.6732256,11.0538439 Z M99.3692804,5.64612241 C99.7404463,5.64612241 100.041231,5.94690684 100.041295,6.31807266 C100.041295,6.68917449 99.7405102,6.99002291 99.3693444,6.99002291 L97.3449839,6.99002291 L97.3449839,9.01425543 C97.3449839,9.38535726 97.0443275,9.68620568 96.6730337,9.68620568 C96.3018679,9.68620568 96.0010834,9.38535726 96.0010834,9.01425543 L96.0010834,6.99002291 L93.9768509,6.99002291 C93.6056851,6.99002291 93.3049007,6.68917449 93.3049007,6.31807266 C93.3049007,5.94697083 93.6056851,5.64612241 93.9768509,5.64612241 L96.0010195,5.64612241 L96.0010195,3.62188989 C96.0010195,3.25078806 96.3018039,2.94993964 96.6729697,2.94993964 C97.0442635,2.94993964 97.34492,3.25078806 97.34492,3.62188989 L97.34492,5.64612241 L99.3692804,5.64612241 Z" id="Combined-Shape"></path>
            </g>
        </g>
    </g>
</svg>