<?xml version="1.0" encoding="UTF-8"?>
<svg width="30px" height="28px" viewBox="0 0 30 28" version="1.1" xmlns="http://www.w3.org/2000/svg" xmlns:xlink="http://www.w3.org/1999/xlink">
    <!-- Generator: Sketch 53.2 (72643) - https://sketchapp.com -->
    <title>Shape</title>
    <desc>Created with Sketch.</desc>
    <g id="Category" stroke="none" stroke-width="1" fill="none" fill-rule="evenodd">
        <g id="Full-Category" transform="translate(-705.000000, -2261.000000)" fill="#5AD2A0" fill-rule="nonzero">
            <path d="M732,2261 L708,2261 C706.374,2261 705,2262.374 705,2264 L705,2280.5 C705,2282.126 706.374,2283.5 708,2283.5 L722.279,2283.5 L727.13,2288.8365 C727.2265,2288.9425 727.362,2289 727.5,2289 C727.5605,2289 727.6215,2288.989 727.68,2288.9665 C727.873,2288.892 728,2288.7065 728,2288.5 L728,2283.5 L732,2283.5 C733.626,2283.5 735,2282.126 735,2280.5 L735,2264 C735,2262.374 733.626,2261 732,2261 Z M711,2267.5 L718.5,2267.5 C718.7765,2267.5 719,2267.724 719,2268 C719,2268.276 718.7765,2268.5 718.5,2268.5 L711,2268.5 C710.7235,2268.5 710.5,2268.276 710.5,2268 C710.5,2267.724 710.7235,2267.5 711,2267.5 Z M728,2276.5 L711,2276.5 C710.7235,2276.5 710.5,2276.276 710.5,2276 C710.5,2275.724 710.7235,2275.5 711,2275.5 L728,2275.5 C728.2765,2275.5 728.5,2275.724 728.5,2276 C728.5,2276.276 728.2765,2276.5 728,2276.5 Z M728,2272.5 L711,2272.5 C710.7235,2272.5 710.5,2272.276 710.5,2272 C710.5,2271.724 710.7235,2271.5 711,2271.5 L728,2271.5 C728.2765,2271.5 728.5,2271.724 728.5,2272 C728.5,2272.276 728.2765,2272.5 728,2272.5 Z" id="Shape"></path>
        </g>
    </g>
</svg>