<?xml version="1.0" encoding="UTF-8"?>
<svg width="32px" height="32px" viewBox="0 0 32 32" version="1.1" xmlns="http://www.w3.org/2000/svg" xmlns:xlink="http://www.w3.org/1999/xlink">
    <!-- Generator: sketchtool 52.6 (67491) - http://www.bohemiancoding.com/sketch -->
    <title>F4C8AEB3-4B0A-4174-BECD-7B9A93F4A376</title>
    <desc>Created with sketchtool.</desc>
    <g id="Symbols" stroke="none" stroke-width="1" fill="none" fill-rule="evenodd">
        <g id="Icons/Outline/Email" fill="#5ad2a0">
            <path d="M9.6,10 C8.716,10 8,10.716 8,11.6 L8,21.2 C8,22.084 8.716,22.8 9.6,22.8 L22.4,22.8 C23.284,22.8 24,22.084 24,21.2 L24,11.6 C24,10.716 23.284,10 22.4,10 L9.6,10 Z M9.6,11.6 L22.4,11.6 L22.4,12.4015625 L16,16.4 L9.6,12.4015625 L9.6,11.6 Z M9.6,14.0015625 L16,18 L22.4,14.0015625 L22.4,21.2 L9.6,21.2 L9.6,14.0015625 Z" id="Shape"></path>
        </g>
    </g>
</svg>
