<?xml version="1.0" encoding="UTF-8"?>
<svg width="32px" height="32px" viewBox="0 0 32 32" version="1.1" xmlns="http://www.w3.org/2000/svg" xmlns:xlink="http://www.w3.org/1999/xlink">
    <!-- Generator: sketchtool 52.6 (67491) - http://www.bohemiancoding.com/sketch -->
    <title>9CDC01D8-E272-4232-93DD-49B5B2D13659</title>
    <desc>Created with sketchtool.</desc>
    <g id="Symbols" stroke="none" stroke-width="1" fill="none" fill-rule="evenodd">
        <g id="Icons/Outline/Location" fill="#5ad2a0">
            <path d="M15.5938864,8 C12.5090112,8 10,10.5105738 10,13.595449 C10,17.1819363 14.7734792,23.0078912 14.9766842,23.2534971 L15.5938864,24.001953 L16.2110887,23.2534971 C16.4142936,23.0070911 21.1877733,17.1819363 21.1877733,13.595449 C21.1877725,10.5097737 18.6787617,8 15.5938864,8 Z M15.5938864,9.60003902 C17.7963401,9.60003902 19.5877342,11.3929952 19.5877342,13.595449 C19.5877334,15.7595016 17.0963231,19.4814051 15.5938864,21.4534532 C14.0914498,19.4830052 11.600039,15.7627016 11.600039,13.595449 C11.600039,11.3929952 13.3914327,9.60003902 15.5938864,9.60003902 Z M15.5938864,11.5922751 C14.4890595,11.5922751 13.5938377,12.487497 13.5938377,13.5923239 C13.5938377,14.6971509 14.4890595,15.5923727 15.5938864,15.5923727 C16.6987134,15.5923727 17.5939352,14.6971509 17.5939352,13.5923239 C17.5939352,12.487497 16.6987134,11.5922751 15.5938864,11.5922751 Z" id="Shape"></path>
        </g>
    </g>
</svg>
