<svg xmlns="http://www.w3.org/2000/svg" xmlns:xlink="http://www.w3.org/1999/xlink" width="40" height="41" viewBox="0 0 40 41">
    <defs>
        <path id="a" d="M0 .015h39.938v39.99H0z"/>
    </defs>
    <g fill="none" fill-rule="evenodd">
        <g transform="translate(0 .024)">
            <mask id="b" fill="#fff">
                <use xlink:href="#a"/>
            </mask>
            <path fill="#5AD2A0" d="M19.974.015C8.94.015 0 8.965 0 20.01c0 3.42.862 6.638 2.374 9.454L.654 39.35l9.88-1.72a19.856 19.856 0 0 0 9.44 2.374c11.022 0 19.964-8.95 19.964-19.994S30.996.015 19.974.015" mask="url(#b)"/>
        </g>
        <path fill="#FFF" d="M13.27 16.726a6.662 6.662 0 0 0-1.388 4.078v9.419a1.798 1.798 0 1 1-3.593 0v-9.42c0-3.689 2.998-6.69 6.682-6.69a6.66 6.66 0 0 1 1.797.245 6.702 6.702 0 0 1 4.885 6.446v4.32a1.798 1.798 0 1 1-3.593 0v-4.32a3.094 3.094 0 0 0-3.089-3.093 3.094 3.094 0 0 0-3.089 3.093c0-1.534.518-2.948 1.387-4.077z"/>
        <path fill="#FFF" d="M18.228 11.306a3.26 3.26 0 0 1-3.257 3.262 3.26 3.26 0 0 1-3.257-3.262 3.26 3.26 0 0 1 3.257-3.261 3.26 3.26 0 0 1 3.257 3.261M26.668 16.727a6.663 6.663 0 0 1 1.387 4.077 3.094 3.094 0 0 0-3.088-3.093c-1.03 0-1.943.507-2.505 1.285a7.493 7.493 0 0 0-1.797-3.307 6.669 6.669 0 0 1 2.505-1.33 6.657 6.657 0 0 1 1.797-.247c3.684 0 6.681 3.002 6.681 6.692v9.419a1.798 1.798 0 1 1-3.593 0v-9.42a6.663 6.663 0 0 0-1.387-4.076z"/>
        <path fill="#FFF" d="M21.71 11.306a3.26 3.26 0 0 0 3.257 3.262 3.26 3.26 0 0 0 3.257-3.262 3.26 3.26 0 0 0-3.257-3.261 3.26 3.26 0 0 0-3.257 3.261"/>
    </g>
</svg>
