<?xml version="1.0" encoding="UTF-8"?>
<svg width="32px" height="32px" viewBox="0 0 32 32" version="1.1" xmlns="http://www.w3.org/2000/svg" xmlns:xlink="http://www.w3.org/1999/xlink">
    <!-- Generator: Sketch 52.6 (67491) - http://www.bohemiancoding.com/sketch -->
    <title>Icons/Outline/Phone</title>
    <desc>Created with Sketch.</desc>
    <g id="Icons/Outline/Phone" stroke="none" stroke-width="1" fill="none" fill-rule="evenodd">
        <path d="M8.88888889,8 C8.49955556,8 8,8.29155556 8,8.88888889 C8,12.9235556 9.63626391,16.7761804 12.4149306,19.5850693 C15.2238196,22.363736 19.0764444,24 23.1111111,24 C23.7084444,24 24,23.5004444 24,23.1111111 L24,19.9913191 C24,19.5068747 23.6163884,19.1122498 23.1319449,19.1006942 C22.5719449,19.0873609 21.867208,19.0539164 21.4218747,18.9756942 C20.9400969,18.8903609 20.3593884,18.7260693 19.9513884,18.5989582 C19.8642782,18.5714027 19.7746524,18.5590276 19.6857636,18.5590276 C19.4493191,18.5590276 19.2193191,18.6513609 19.0468747,18.8229164 L17.0763893,20.7829858 C15.7146107,20.0656524 14.623208,19.2292364 13.6996528,18.3003476 C12.7707639,17.376792 11.9343472,16.2853893 11.2170139,14.9236107 L13.1770834,12.953125 C13.4135277,12.7157916 13.5005972,12.366875 13.4010417,12.046875 C13.2748195,11.6397639 13.10875,11.0599028 13.0243056,10.578125 C12.9451944,10.1327916 12.9135278,9.42805556 12.8993056,8.86805556 C12.88775,8.38361111 12.493125,8 12.0086805,8 L8.88888889,8 Z M16,8 L16,9.77777778 C19.4364444,9.77777778 22.2222222,12.5635556 22.2222222,16 L24,16 C24,11.5813333 20.4186667,8 16,8 Z M9.80729164,9.77777778 L11.15625,9.77777778 C11.1829167,10.2293333 11.2210139,10.5964861 11.2725694,10.8871528 C11.332125,11.2249306 11.4258611,11.61975 11.5520834,12.0659723 L10.4826389,13.1423611 C10.1155277,12.0561388 9.88640276,10.9235556 9.80729164,9.77777778 Z M16,11.5555556 L16,13.3333333 C17.4728889,13.3333333 18.6666667,14.5271111 18.6666667,16 L20.4444444,16 C20.4444444,13.5457778 18.4542222,11.5555556 16,11.5555556 Z M19.9357636,20.4479164 C20.3810969,20.5741387 20.7768053,20.6678747 21.1145831,20.7274302 C21.4052498,20.7789858 21.7706667,20.8170836 22.2222222,20.8437502 L22.2222222,22.1927084 C21.0755556,22.1144862 19.9438613,21.8835831 18.8576391,21.5173609 L19.9357636,20.4479164 Z" id="Shape" fill="#5ad2a0"></path>
    </g>
</svg>
