<?xml version="1.0" encoding="UTF-8"?>
<svg width="30px" height="30px" viewBox="0 0 30 30" version="1.1" xmlns="http://www.w3.org/2000/svg" xmlns:xlink="http://www.w3.org/1999/xlink">
    <!-- Generator: Sketch 53.2 (72643) - https://sketchapp.com -->
    <title>Combined Shape</title>
    <desc>Created with Sketch.</desc>
    <g id="Category" stroke="none" stroke-width="1" fill="none" fill-rule="evenodd">
        <g id="Full-Category" transform="translate(-705.000000, -744.000000)" fill="#5AD2A0" fill-rule="nonzero">
            <path d="M729.88472,751.531128 C732.714615,751.531128 735,753.821548 735,756.646408 L735,773.121094 C735,773.607925 734.604492,774 734.121323,774 C733.919449,774 733.719406,773.93042 733.558502,773.796295 L728.154373,769.292816 L717.646408,769.292816 C714.825897,769.292816 712.531128,766.998276 712.531128,764.177765 L712.531128,763.519501 L722.353592,763.519501 C726.143417,763.519501 729.226685,760.436234 729.226685,756.646408 L729.226685,751.531128 L729.88472,751.531128 Z M727.468872,756.646408 C727.468872,759.467148 725.174103,761.761688 722.353592,761.761688 L711.845627,761.761688 L706.441498,766.264938 C706.280594,766.399292 706.080551,766.468872 705.878677,766.468872 C705.395508,766.468872 705,766.076569 705,765.589966 L705,749.11528 C705,746.290192 707.285385,744 710.11528,744 L722.353592,744 C725.17868,744 727.468872,746.285385 727.468872,749.11528 L727.468872,756.646408 Z M716.234436,757.996124 C716.719437,757.996124 717.113342,757.602448 717.113342,757.117218 C717.113342,756.631989 716.719437,756.238312 716.234436,756.238312 C715.749207,756.238312 715.35553,756.631989 715.35553,757.117218 C715.35553,757.602448 715.749207,757.996124 716.234436,757.996124 Z M717.113342,754.109024 C718.469925,753.725418 719.466705,752.475952 719.466705,750.998062 C719.466705,749.215759 718.016739,747.765564 716.233292,747.765564 C715.370178,747.765564 714.558792,748.101791 713.948364,748.712219 C713.338165,749.322418 713.001938,750.134033 713.001938,750.996918 L713.001938,750.998062 C713.001938,751.483292 713.395386,751.876511 713.880844,751.876511 C714.366302,751.876511 714.75975,751.482376 714.75975,750.996918 C714.75975,750.60347 714.913101,750.233368 715.191422,749.955048 C715.469742,749.676727 715.839844,749.523376 716.234436,749.523376 C717.047424,749.523376 717.708893,750.184845 717.708893,750.998062 C717.708893,751.81105 717.047424,752.472748 716.234436,752.472748 C715.748978,752.472748 715.35553,752.866196 715.35553,753.351654 L715.35553,754.293045 C715.35553,754.778275 715.748978,755.171951 716.234436,755.171951 C716.719666,755.171951 717.113342,754.778275 717.113342,754.293045 L717.113342,754.109024 Z" id="Combined-Shape"></path>
        </g>
    </g>
</svg>