<?xml version="1.0" encoding="UTF-8"?>
<svg width="42px" height="42px" viewBox="0 0 42 42" version="1.1" xmlns="http://www.w3.org/2000/svg" xmlns:xlink="http://www.w3.org/1999/xlink">
    <!-- Generator: Sketch 53.2 (72643) - https://sketchapp.com -->
    <title>Group@2x</title>
    <desc>Created with Sketch.</desc>
    <defs>
        <circle id="path-1" cx="20" cy="20" r="20"></circle>
    </defs>
    <g id="Category" stroke="none" stroke-width="1" fill="none" fill-rule="evenodd">
        <g id="Full-Category" transform="translate(-1137.000000, -879.000000)">
            <g id="Group" transform="translate(1138.000000, 880.000000)">
                <mask id="mask-2" fill="white">
                    <use xlink:href="#path-1"></use>
                </mask>
                <use id="Mask" stroke="#FCFCFC" stroke-width="2" fill="#D7D7D7" xlink:href="#path-1"></use>
                <path d="M30.7692391,33.5903438 L25.0582065,30.7545937 C24.5195652,30.4868125 24.1847826,29.948875 24.1847826,29.350375 L24.1847826,27.3429062 C24.3216848,27.1766562 24.4657609,26.98725 24.6146196,26.77825 C25.3553261,25.7391875 25.9489674,24.5825625 26.3805978,23.3350937 C27.2241304,22.9509375 27.7717391,22.1226562 27.7717391,21.1875 L27.7717391,18.8125 C27.7717391,18.2407187 27.5565217,17.68675 27.173913,17.2539062 L27.173913,14.09575 C27.2073913,13.7691875 27.338913,11.82525 25.9232609,10.2215312 C24.6953261,8.830375 22.7027717,8.125 20,8.125 C17.2972283,8.125 15.3046739,8.830375 14.0767391,10.2209375 C12.661087,11.8246563 12.7926087,13.7691875 12.826087,14.09575 L12.826087,17.2539062 C12.4434783,17.68675 12.2282609,18.2407187 12.2282609,18.8125 L12.2282609,21.1875 C12.2282609,21.9100937 12.5588587,22.584 13.1232065,23.0334688 C13.6708152,25.187 14.8168478,26.8097187 15.2173913,27.3304375 L15.2173913,29.2951563 C15.2173913,29.8699063 14.9017391,30.3971563 14.3941848,30.6726562 L9.06097826,33.5618437 C7.32668478,34.50175 6.25,36.3031875 6.25,38.2649375 L6.25,40.1875 C6.25,43.0054375 15.2442935,43.75 20,43.75 C24.7557065,43.75 33.75,43.0054375 33.75,40.1875 L33.75,38.3807187 C33.75,36.3394062 32.6075543,34.5035312 30.7692391,33.5903438 Z" id="Shape-Copy" fill="#FFFFFF" fill-rule="nonzero" mask="url(#mask-2)"></path>
            </g>
        </g>
    </g>
</svg>